<svg height="100%" width="100%" id="bg-svg" viewBox="0 0 1440 700" xmlns="http://www.w3.org/2000/svg" class="transition duration-300 ease-in-out delay-150"><defs><linearGradient id="gradient"><stop offset="5%" stop-color="#7510f744"></stop><stop offset="95%" stop-color="#7510f744"></stop></linearGradient></defs><path d="M 0,700 C 0,700 0,140 0,140 C 206.93333333333334,107.19999999999999 413.8666666666667,74.39999999999999 557,89 C 700.1333333333333,103.60000000000001 779.4666666666667,165.6 916,182 C 1052.5333333333333,198.4 1246.2666666666667,169.2 1440,140 C 1440,140 1440,700 1440,700 Z" stroke="none" stroke-width="0" fill="url(#gradient)" class="transition-all duration-300 ease-in-out delay-150"></path><defs><linearGradient id="gradient"><stop offset="5%" stop-color="#7510f766"></stop><stop offset="95%" stop-color="#7510f766"></stop></linearGradient></defs><path d="M 0,700 C 0,700 0,280 0,280 C 131.60000000000002,298 263.20000000000005,316 413,314 C 562.8,312 730.8,290 905,281 C 1079.2,272 1259.6,276 1440,280 C 1440,280 1440,700 1440,700 Z" stroke="none" stroke-width="0" fill="url(#gradient)" class="transition-all duration-300 ease-in-out delay-150"></path><defs><linearGradient id="gradient"><stop offset="5%" stop-color="#7510f788"></stop><stop offset="95%" stop-color="#7510f788"></stop></linearGradient></defs><path d="M 0,700 C 0,700 0,420 0,420 C 198,450.5333333333333 396,481.06666666666666 558,468 C 720,454.93333333333334 846,398.2666666666667 987,383 C 1128,367.7333333333333 1284,393.8666666666667 1440,420 C 1440,420 1440,700 1440,700 Z" stroke="none" stroke-width="0" fill="url(#gradient)" class="transition-all duration-300 ease-in-out delay-150"></path><defs><linearGradient id="gradient"><stop offset="5%" stop-color="#7510f7ff"></stop><stop offset="95%" stop-color="#7510f7ff"></stop></linearGradient></defs><path d="M 0,700 C 0,700 0,560 0,560 C 162.53333333333336,549.2 325.0666666666667,538.4 473,548 C 620.9333333333333,557.6 754.2666666666667,587.6 913,593 C 1071.7333333333333,598.4 1255.8666666666668,579.2 1440,560 C 1440,560 1440,700 1440,700 Z" stroke="none" stroke-width="0" fill="url(#gradient)" class="transition-all duration-300 ease-in-out delay-150"></path></svg>
